<?xml version="1.0" standalone="no"?>
<!DOCTYPE svg PUBLIC "-//W3C//DTD SVG 20010904//EN"
 "http://www.w3.org/TR/2001/REC-SVG-20010904/DTD/svg10.dtd">
<svg version="1.0" xmlns="http://www.w3.org/2000/svg"
 width="96.000000pt" height="96.000000pt" viewBox="0 0 96.000000 96.000000"
 preserveAspectRatio="xMidYMid meet">

<g transform="translate(0.000000,96.000000) scale(0.100000,-0.100000)"
fill="#000000" stroke="none">
<path d="M400 846 c-30 -7 -75 -23 -100 -37 l-45 -24 112 -3 c62 -1 164 -1
225 0 l113 3 -50 27 c-46 24 -145 49 -184 47 -9 0 -41 -6 -71 -13z"/>
<path d="M176 701 c-91 -130 -91 -319 -1 -442 l26 -34 137 -5 c113 -4 137 -8
137 -20 0 -12 -21 -16 -110 -20 l-110 -5 51 -27 c186 -98 423 -21 510 167 12
28 26 62 29 78 l7 27 -129 0 c-122 0 -129 1 -129 20 0 19 7 20 133 20 l133 0
-6 48 c-10 77 -22 114 -56 172 l-33 55 -281 3 -281 2 -27 -39z m384 -381 c0
-17 -7 -20 -40 -20 -33 0 -40 3 -40 20 0 17 7 20 40 20 33 0 40 -3 40 -20z"/>
</g>
</svg>
